<svg t="1601113551258" class="icon" viewBox="0 0 1024 1024" version="1.1" xmlns="http://www.w3.org/2000/svg" p-id="4355" width="200" height="200"><path d="M234.96071405 309.8630956h306.30535703l28.9285719-48.11785785h-149.85c-13.54821405 0-15.47678594-11.01696405-12.0535719-17.42946405 10.60714298-19.81607107 32.7375-62.4375 66.3910719-127.9125 13.74107107-19.45446405 28.88035703-29.16964298 45.44196405-29.16964298 20.05714297 0 29.41071405 9.71517893 28.03660702 29.16964298l-47.90089297 96.35625c87.53303594-1.15714298 135.60267893-1.15714298 144.20892891 0 6.75 0.89196405 9.16071405 0.26517892 14.5125 8.6785719 5.37589298 8.41339298-0.09642892 11.64375001 0 15.25982108-6.79821406 11.95714298-10.51071405 18.03214297-14.5125 25.04732107C624.725 294.5068456 613.82857107 309.8630956 621.6875 309.8630956h168.00267892c9.76339298 0 36.88392892-3.18214298 54.77142811 18.36964215 11.90892892 14.36785703 17.59821405 32.78571405 17.09196405 55.20535785 0.38571405 96.13928594 0.57857108 151.85089297 0.57857189 167.13482108 0 3.13392892 15.69375001-57.25446405 47.65982108-27.89196406 14.53660703 28.25357107 17.57410702 134.34910702 0 172.8964281C885.66071405 738.92202369 862.13214297 670.02380964 861.55357107 672.36220262c0 0 0.57857108 90.32946405 0.57857191 145.84821404 0 5.0625 4.09821406 31.725-17.67053595 51.20357108-14.5125 13.01785702-32.78571405 19.45446405-54.7714281 19.38214299l-579.60803595-5.32767811c-16.03125001-2.45892893-28.44642892-10.02857108-37.31785703-22.73303596-8.82321406-12.68035702-12.29464298-27.89196405-10.31785702-45.65892892v-142.71428512c-15.54910702 27.96428594-31.50803595 35.99196405-47.8285719 24.10714297C90.125 678.70238072 87.61785703 545.3657737 112.97857107 527.23720261c16.89910702-12.10178595 33.38839298-4.33928595 49.46785786 23.35982109v-167.11071406c0-22.51607107 8.1-40.90982108 24.27589215-55.20535703 16.2-14.31964297 32.27946405-20.44285703 48.21428595-18.39375zM234.76785703 382.18452369v433.92857191h554.46428595V382.18452369H234.76785703z" fill="#cdcdcd" p-id="4356"></path><path d="M391.46428595 611.20238072m-60.26785702 0a60.26785702 60.26785702 0 1 0 120.53571404 0 60.26785702 60.26785702 0 1 0-120.53571405 0Z" fill="#cdcdcd" p-id="4357"></path><path d="M656.64285703 611.20238072m-60.26785703 0a60.26785702 60.26785702 0 1 0 120.53571405 0 60.26785702 60.26785702 0 1 0-120.53571405 0Z" fill="#cdcdcd" p-id="4358"></path></svg>
