<svg xmlns="http://www.w3.org/2000/svg" xmlns:xlink="http://www.w3.org/1999/xlink" width="6112" height="340" viewBox="0 0 6112 340">
  <defs>
    <clipPath id="clip-path">
      <rect id="Rectangle_24" data-name="Rectangle 24" width="3056" height="340"/>
    </clipPath>
    <clipPath id="clip-path-3">
      <rect id="Rectangle_21" data-name="Rectangle 21" width="3056" height="326.315"/>
    </clipPath>
  </defs>
  <g id="Group_16" data-name="Group 16" transform="translate(1906 2836)">
    <g id="wave" transform="translate(-1906 -2836)">
      <g id="Group_14" data-name="Group 14" clip-path="url(#clip-path)">
        <g id="Group_13" data-name="Group 13" opacity="0.2" clip-path="url(#clip-path)">
          <g id="Group_12" data-name="Group 12" transform="translate(0 13.685)">
            <g id="Group_10" data-name="Group 10" clip-path="url(#clip-path-3)">
              <path id="Path_20" data-name="Path 20" d="M1735.475,133C1709.794,109.469,1687.038,91,1668.6,74.817,1616.613,29.2,1578.564,20.669,1561.325,17.9c-71.709-11.749-136.215,16-182,46.181-42.886,28.268-83.686,62.86-83.686,62.86C1212.347,194.365,1181.69,208,1181.69,208c-198.857,96.4-278.248,63.416-437.484,16.872C508.8,156.057,428.958,190.36,375.417,212.817c-91.638,38.438-91.638,38.438-134.68,55.432C133.361,310.646,44.013,306.985,0,310.234v31.221H1735.475Z" transform="translate(0 -15.142)" fill="#196be5"/>
            </g>
            <g id="Group_11" data-name="Group 11" clip-path="url(#clip-path-3)">
              <path id="Path_21" data-name="Path 21" d="M1460.93,133c25.682-23.532,48.437-42.005,66.873-58.183,51.989-45.621,90.04-54.149,107.278-56.918,71.708-11.749,136.216,16,182,46.181,42.886,28.268,83.686,62.86,83.686,62.86C1984.059,194.365,2014.716,208,2014.716,208c198.857,96.4,278.248,63.416,437.484,16.872,235.409-68.811,315.248-34.508,368.788-12.051,91.639,38.438,91.639,38.438,134.68,55.432,107.376,42.4,196.724,38.736,240.737,41.986v31.221H1460.931V133Z" transform="translate(-140.405 -15.142)" fill="#196be5"/>
            </g>
          </g>
        </g>
      </g>
    </g>
    <g id="wave-2" data-name="wave" transform="translate(1150 -2836)">
      <g id="Group_14-2" data-name="Group 14" clip-path="url(#clip-path)">
        <g id="Group_13-2" data-name="Group 13" opacity="0.2" clip-path="url(#clip-path)">
          <g id="Group_12-2" data-name="Group 12" transform="translate(0 13.685)">
            <g id="Group_10-2" data-name="Group 10" clip-path="url(#clip-path-3)">
              <path id="Path_20-2" data-name="Path 20" d="M1735.475,133C1709.794,109.469,1687.038,91,1668.6,74.817,1616.613,29.2,1578.564,20.669,1561.325,17.9c-71.709-11.749-136.215,16-182,46.181-42.886,28.268-83.686,62.86-83.686,62.86C1212.347,194.365,1181.69,208,1181.69,208c-198.857,96.4-278.248,63.416-437.484,16.872C508.8,156.057,428.958,190.36,375.417,212.817c-91.638,38.438-91.638,38.438-134.68,55.432C133.361,310.646,44.013,306.985,0,310.234v31.221H1735.475Z" transform="translate(0 -15.142)" fill="#196be5"/>
            </g>
            <g id="Group_11-2" data-name="Group 11" clip-path="url(#clip-path-3)">
              <path id="Path_21-2" data-name="Path 21" d="M1460.93,133c25.682-23.532,48.437-42.005,66.873-58.183,51.989-45.621,90.04-54.149,107.278-56.918,71.708-11.749,136.216,16,182,46.181,42.886,28.268,83.686,62.86,83.686,62.86C1984.059,194.365,2014.716,208,2014.716,208c198.857,96.4,278.248,63.416,437.484,16.872,235.409-68.811,315.248-34.508,368.788-12.051,91.639,38.438,91.639,38.438,134.68,55.432,107.376,42.4,196.724,38.736,240.737,41.986v31.221H1460.931V133Z" transform="translate(-140.405 -15.142)" fill="#196be5"/>
            </g>
          </g>
        </g>
      </g>
    </g>
  </g>
</svg>
