<svg xmlns="http://www.w3.org/2000/svg" xmlns:xlink="http://www.w3.org/1999/xlink" width="6112" height="340" viewBox="0 0 6112 340">
  <defs>
    <clipPath id="clip-path">
      <rect id="Rectangle_1344" data-name="Rectangle 1344" width="3056" height="340" fill="#d0d7e2"/>
    </clipPath>
    <clipPath id="clip-path-2">
      <rect id="Rectangle_1341" data-name="Rectangle 1341" width="3056" height="326.315" fill="#d0d7e2"/>
    </clipPath>
  </defs>
  <g id="Group_15" data-name="Group 15" transform="translate(2388 4507)">
    <g id="Group_143" data-name="Group 143" transform="translate(668 -4507)" clip-path="url(#clip-path)">
      <g id="Group_142" data-name="Group 142" transform="translate(0 13.685)" opacity="0.15">
        <g id="Group_141" data-name="Group 141">
          <g id="Group_139" data-name="Group 139" clip-path="url(#clip-path-2)">
            <path id="Path_186" data-name="Path 186" d="M1735.47,133c-25.68-23.531-48.43-42-66.87-58.183C1616.61,29.2,1578.56,20.669,1561.32,17.9c-71.709-11.749-136.217,16-182,46.184-42.886,28.268-83.686,62.86-83.686,62.86C1212.35,194.366,1181.69,208,1181.69,208c-198.857,96.4-278.248,63.416-437.484,16.872C508.8,156.06,428.958,190.362,375.417,212.82c-91.638,38.438-91.638,38.438-134.68,55.432C133.361,310.643,44.013,306.985,0,310.234v31.221H1735.47Z" transform="translate(0 -15.142)" fill="#d0d7e2"/>
          </g>
          <g id="Group_140" data-name="Group 140" clip-path="url(#clip-path-2)">
            <path id="Path_187" data-name="Path 187" d="M1460.93,133c25.682-23.532,48.437-42.005,66.873-58.183,51.989-45.621,90.04-54.149,107.278-56.918,71.708-11.749,136.217,16,182,46.184,42.886,28.268,83.686,62.86,83.686,62.86C1984.06,194.366,2014.72,208,2014.72,208c198.857,96.4,278.248,63.416,437.484,16.872,235.409-68.811,315.248-34.508,368.788-12.051,91.639,38.438,91.639,38.438,134.68,55.432,107.376,42.4,196.724,38.736,240.737,41.986V341.46H1460.93Z" transform="translate(-140.405 -15.142)" fill="#d0d7e2"/>
          </g>
        </g>
      </g>
    </g>
    <g id="Group_143-2" data-name="Group 143" transform="translate(-2388 -4507)" clip-path="url(#clip-path)">
      <g id="Group_142-2" data-name="Group 142" transform="translate(0 13.685)" opacity="0.15">
        <g id="Group_141-2" data-name="Group 141">
          <g id="Group_139-2" data-name="Group 139" clip-path="url(#clip-path-2)">
            <path id="Path_186-2" data-name="Path 186" d="M1735.47,133c-25.68-23.531-48.43-42-66.87-58.183C1616.61,29.2,1578.56,20.669,1561.32,17.9c-71.709-11.749-136.217,16-182,46.184-42.886,28.268-83.686,62.86-83.686,62.86C1212.35,194.366,1181.69,208,1181.69,208c-198.857,96.4-278.248,63.416-437.484,16.872C508.8,156.06,428.958,190.362,375.417,212.82c-91.638,38.438-91.638,38.438-134.68,55.432C133.361,310.643,44.013,306.985,0,310.234v31.221H1735.47Z" transform="translate(0 -15.142)" fill="#d0d7e2"/>
          </g>
          <g id="Group_140-2" data-name="Group 140" clip-path="url(#clip-path-2)">
            <path id="Path_187-2" data-name="Path 187" d="M1460.93,133c25.682-23.532,48.437-42.005,66.873-58.183,51.989-45.621,90.04-54.149,107.278-56.918,71.708-11.749,136.217,16,182,46.184,42.886,28.268,83.686,62.86,83.686,62.86C1984.06,194.366,2014.72,208,2014.72,208c198.857,96.4,278.248,63.416,437.484,16.872,235.409-68.811,315.248-34.508,368.788-12.051,91.639,38.438,91.639,38.438,134.68,55.432,107.376,42.4,196.724,38.736,240.737,41.986V341.46H1460.93Z" transform="translate(-140.405 -15.142)" fill="#d0d7e2"/>
          </g>
        </g>
      </g>
    </g>
  </g>
</svg>
